<svg width="17" height="17" viewBox="0 0 17 17" fill="none" xmlns="http://www.w3.org/2000/svg">
<g opacity="0.5">
<path fill-rule="evenodd" clip-rule="evenodd" d="M11.949 0H4.435C1.9895 0 0 1.9895 0 4.435V11.9491C0 14.3945 1.9895 16.384 4.435 16.384H11.9491C14.3945 16.384 16.384 14.3945 16.384 11.9491V4.435C16.384 1.9895 14.3945 0 11.949 0ZM8.192 12.6719C5.72175 12.6719 3.71213 10.6623 3.71213 8.192C3.71213 5.72175 5.72175 3.71213 8.192 3.71213C10.6623 3.71213 12.6719 5.72175 12.6719 8.192C12.6719 10.6623 10.6623 12.6719 8.192 12.6719ZM11.4552 3.44488C11.4552 4.17488 12.049 4.76863 12.779 4.76863C13.509 4.76863 14.1029 4.17488 14.1029 3.44488C14.1029 2.71487 13.509 2.121 12.779 2.121C12.049 2.121 11.4552 2.71487 11.4552 3.44488Z" fill="#3A4357"/>
<path d="M8.19198 4.67261C6.25148 4.67261 4.67261 6.25136 4.67261 8.19198C4.67261 10.1325 6.25148 11.7114 8.19198 11.7114C10.1326 11.7114 11.7114 10.1325 11.7114 8.19198C11.7114 6.25136 10.1326 4.67261 8.19198 4.67261Z" fill="#3A4357"/>
<path d="M12.779 3.08154C12.5788 3.08154 12.4158 3.24454 12.4158 3.44479C12.4158 3.64504 12.5788 3.80804 12.779 3.80804C12.9794 3.80804 13.1424 3.64517 13.1424 3.44479C13.1424 3.24442 12.9794 3.08154 12.779 3.08154Z" fill="#3A4357"/>
</g>
</svg>
