<svg xmlns="http://www.w3.org/2000/svg" width="11" height="20" fill="none" viewBox="0 0 11 20"><g opacity=".5"><path fill="#3A4357" d="M10.0178 0.004L7.52478 0C4.72398 0 2.91398 1.857 2.91398 4.7312V6.9126H0.407381C0.190781 6.9126 0.0153809 7.0882 0.0153809 7.3048V10.4654C0.0153809 10.682 0.190981 10.8574 0.407381 10.8574H2.91398V18.8326C2.91398 19.0492 3.08938 19.2246 3.30598 19.2246H6.57638C6.79298 19.2246 6.96838 19.049 6.96838 18.8326V10.8574H9.89918C10.1158 10.8574 10.2912 10.682 10.2912 10.4654L10.2924 7.3048C10.2924 7.2008 10.251 7.1012 10.1776 7.0276C10.1042 6.954 10.0042 6.9126 9.90018 6.9126H6.96838V5.0634C6.96838 4.1746 7.18018 3.7234 8.33798 3.7234L10.0174 3.7228C10.2338 3.7228 10.4092 3.5472 10.4092 3.3308V0.396C10.4092 0.1798 10.234 0.0044 10.0178 0.004Z"/></g></svg>